# Generated low-poly placeholder
mtllib ../../materials/low_poly.mtl
o models/characters/dwarf.obj
s off
v -0.27300 0.01560 -0.13260
v -0.03900 0.01560 -0.13260
v -0.03900 0.73320 -0.13260
v -0.27300 0.73320 -0.13260
v -0.27300 0.01560 0.13260
v -0.03900 0.01560 0.13260
v -0.03900 0.73320 0.13260
v -0.27300 0.73320 0.13260
v 0.03900 0.01560 -0.13260
v 0.27300 0.01560 -0.13260
v 0.27300 0.73320 -0.13260
v 0.03900 0.73320 -0.13260
v 0.03900 0.01560 0.13260
v 0.27300 0.01560 0.13260
v 0.27300 0.73320 0.13260
v 0.03900 0.73320 0.13260
v -0.35100 0.62400 -0.18720
v 0.35100 0.62400 -0.18720
v 0.35100 1.32600 -0.18720
v -0.35100 1.32600 -0.18720
v -0.35100 0.62400 0.18720
v 0.35100 0.62400 0.18720
v 0.35100 1.32600 0.18720
v -0.35100 1.32600 0.18720
v -0.54990 0.65520 -0.10920
v -0.35490 0.65520 -0.10920
v -0.35490 1.32600 -0.10920
v -0.54990 1.32600 -0.10920
v -0.54990 0.65520 0.10920
v -0.35490 0.65520 0.10920
v -0.35490 1.32600 0.10920
v -0.54990 1.32600 0.10920
v 0.35490 0.65520 -0.10920
v 0.54990 0.65520 -0.10920
v 0.54990 1.32600 -0.10920
v 0.35490 1.32600 -0.10920
v 0.35490 0.65520 0.10920
v 0.54990 0.65520 0.10920
v 0.54990 1.32600 0.10920
v 0.35490 1.32600 0.10920
v -0.26520 1.31040 -0.24180
v 0.26520 1.31040 -0.24180
v 0.26520 1.84080 -0.24180
v -0.26520 1.84080 -0.24180
v -0.26520 1.31040 0.24180
v 0.26520 1.31040 0.24180
v 0.26520 1.84080 0.24180
v -0.26520 1.84080 0.24180
v 0.00000 1.34500 0.28000
v 0.00000 2.09500 0.28000
v 0.44000 1.34500 0.28000
v 0.22000 1.34500 0.66105
v -0.22000 1.34500 0.66105
v -0.44000 1.34500 0.28000
v -0.22000 1.34500 -0.10105
v 0.22000 1.34500 -0.10105
v 0.00000 1.93000 0.00000
v 0.00000 2.11000 0.00000
v 0.43000 1.93000 0.00000
v 0.43000 2.11000 0.00000
v 0.30406 1.93000 0.30406
v 0.30406 2.11000 0.30406
v 0.00000 1.93000 0.43000
v 0.00000 2.11000 0.43000
v -0.30406 1.93000 0.30406
v -0.30406 2.11000 0.30406
v -0.43000 1.93000 0.00000
v -0.43000 2.11000 0.00000
v -0.30406 1.93000 -0.30406
v -0.30406 2.11000 -0.30406
v -0.00000 1.93000 -0.43000
v -0.00000 2.11000 -0.43000
v 0.30406 1.93000 -0.30406
v 0.30406 2.11000 -0.30406
usemtl leather
f 1 2 3 4
f 6 5 8 7
f 5 1 4 8
f 2 6 7 3
f 4 3 7 8
f 5 6 2 1
f 9 10 11 12
f 14 13 16 15
f 13 9 12 16
f 10 14 15 11
f 12 11 15 16
f 13 14 10 9
usemtl red
f 17 18 19 20
f 22 21 24 23
f 21 17 20 24
f 18 22 23 19
f 20 19 23 24
f 21 22 18 17
usemtl skin
f 25 26 27 28
f 30 29 32 31
f 29 25 28 32
f 26 30 31 27
f 28 27 31 32
f 29 30 26 25
f 33 34 35 36
f 38 37 40 39
f 37 33 36 40
f 34 38 39 35
f 36 35 39 40
f 37 38 34 33
f 41 42 43 44
f 46 45 48 47
f 45 41 44 48
f 42 46 47 43
f 44 43 47 48
f 45 46 42 41
usemtl beard
f 51 52 50
f 49 52 51
f 52 53 50
f 49 53 52
f 53 54 50
f 49 54 53
f 54 55 50
f 49 55 54
f 55 56 50
f 49 56 55
f 56 51 50
f 49 51 56
usemtl iron
f 59 61 62 60
f 57 61 59
f 58 60 62
f 61 63 64 62
f 57 63 61
f 58 62 64
f 63 65 66 64
f 57 65 63
f 58 64 66
f 65 67 68 66
f 57 67 65
f 58 66 68
f 67 69 70 68
f 57 69 67
f 58 68 70
f 69 71 72 70
f 57 71 69
f 58 70 72
f 71 73 74 72
f 57 73 71
f 58 72 74
f 73 59 60 74
f 57 59 73
f 58 74 60
