# Generated low-poly placeholder
mtllib ../../materials/low_poly.mtl
o models/characters/human.obj
s off
v -0.35000 0.02000 -0.17000
v -0.05000 0.02000 -0.17000
v -0.05000 0.94000 -0.17000
v -0.35000 0.94000 -0.17000
v -0.35000 0.02000 0.17000
v -0.05000 0.02000 0.17000
v -0.05000 0.94000 0.17000
v -0.35000 0.94000 0.17000
v 0.05000 0.02000 -0.17000
v 0.35000 0.02000 -0.17000
v 0.35000 0.94000 -0.17000
v 0.05000 0.94000 -0.17000
v 0.05000 0.02000 0.17000
v 0.35000 0.02000 0.17000
v 0.35000 0.94000 0.17000
v 0.05000 0.94000 0.17000
v -0.45000 0.80000 -0.24000
v 0.45000 0.80000 -0.24000
v 0.45000 1.70000 -0.24000
v -0.45000 1.70000 -0.24000
v -0.45000 0.80000 0.24000
v 0.45000 0.80000 0.24000
v 0.45000 1.70000 0.24000
v -0.45000 1.70000 0.24000
v -0.70500 0.84000 -0.14000
v -0.45500 0.84000 -0.14000
v -0.45500 1.70000 -0.14000
v -0.70500 1.70000 -0.14000
v -0.70500 0.84000 0.14000
v -0.45500 0.84000 0.14000
v -0.45500 1.70000 0.14000
v -0.70500 1.70000 0.14000
v 0.45500 0.84000 -0.14000
v 0.70500 0.84000 -0.14000
v 0.70500 1.70000 -0.14000
v 0.45500 1.70000 -0.14000
v 0.45500 0.84000 0.14000
v 0.70500 0.84000 0.14000
v 0.70500 1.70000 0.14000
v 0.45500 1.70000 0.14000
v -0.34000 1.68000 -0.31000
v 0.34000 1.68000 -0.31000
v 0.34000 2.36000 -0.31000
v -0.34000 2.36000 -0.31000
v -0.34000 1.68000 0.31000
v 0.34000 1.68000 0.31000
v 0.34000 2.36000 0.31000
v -0.34000 2.36000 0.31000
v -0.34000 2.35000 -0.37000
v 0.34000 2.35000 -0.37000
v 0.34000 2.51000 -0.37000
v -0.34000 2.51000 -0.37000
v -0.34000 2.35000 0.21000
v 0.34000 2.35000 0.21000
v 0.34000 2.51000 0.21000
v -0.34000 2.51000 0.21000
usemtl leather
f 1 2 3 4
f 6 5 8 7
f 5 1 4 8
f 2 6 7 3
f 4 3 7 8
f 5 6 2 1
f 9 10 11 12
f 14 13 16 15
f 13 9 12 16
f 10 14 15 11
f 12 11 15 16
f 13 14 10 9
usemtl blue
f 17 18 19 20
f 22 21 24 23
f 21 17 20 24
f 18 22 23 19
f 20 19 23 24
f 21 22 18 17
usemtl skin
f 25 26 27 28
f 30 29 32 31
f 29 25 28 32
f 26 30 31 27
f 28 27 31 32
f 29 30 26 25
f 33 34 35 36
f 38 37 40 39
f 37 33 36 40
f 34 38 39 35
f 36 35 39 40
f 37 38 34 33
f 41 42 43 44
f 46 45 48 47
f 45 41 44 48
f 42 46 47 43
f 44 43 47 48
f 45 46 42 41
usemtl hair
f 49 50 51 52
f 54 53 56 55
f 53 49 52 56
f 50 54 55 51
f 52 51 55 56
f 53 54 50 49
