# Generated low-poly placeholder
mtllib ../../materials/low_poly.mtl
o models/characters/training_goblin.obj
s off
v -0.30800 0.01760 -0.14960
v -0.04400 0.01760 -0.14960
v -0.04400 0.82720 -0.14960
v -0.30800 0.82720 -0.14960
v -0.30800 0.01760 0.14960
v -0.04400 0.01760 0.14960
v -0.04400 0.82720 0.14960
v -0.30800 0.82720 0.14960
v 0.04400 0.01760 -0.14960
v 0.30800 0.01760 -0.14960
v 0.30800 0.82720 -0.14960
v 0.04400 0.82720 -0.14960
v 0.04400 0.01760 0.14960
v 0.30800 0.01760 0.14960
v 0.30800 0.82720 0.14960
v 0.04400 0.82720 0.14960
v -0.39600 0.70400 -0.21120
v 0.39600 0.70400 -0.21120
v 0.39600 1.49600 -0.21120
v -0.39600 1.49600 -0.21120
v -0.39600 0.70400 0.21120
v 0.39600 0.70400 0.21120
v 0.39600 1.49600 0.21120
v -0.39600 1.49600 0.21120
v -0.62040 0.73920 -0.12320
v -0.40040 0.73920 -0.12320
v -0.40040 1.49600 -0.12320
v -0.62040 1.49600 -0.12320
v -0.62040 0.73920 0.12320
v -0.40040 0.73920 0.12320
v -0.40040 1.49600 0.12320
v -0.62040 1.49600 0.12320
v 0.40040 0.73920 -0.12320
v 0.62040 0.73920 -0.12320
v 0.62040 1.49600 -0.12320
v 0.40040 1.49600 -0.12320
v 0.40040 0.73920 0.12320
v 0.62040 0.73920 0.12320
v 0.62040 1.49600 0.12320
v 0.40040 1.49600 0.12320
v -0.29920 1.47840 -0.27280
v 0.29920 1.47840 -0.27280
v 0.29920 2.07680 -0.27280
v -0.29920 2.07680 -0.27280
v -0.29920 1.47840 0.27280
v 0.29920 1.47840 0.27280
v 0.29920 2.07680 0.27280
v -0.29920 2.07680 0.27280
v -0.55000 1.62000 0.00000
v -0.55000 2.24000 0.00000
v -0.35000 1.62000 0.00000
v -0.55000 1.62000 0.20000
v -0.75000 1.62000 0.00000
v -0.55000 1.62000 -0.20000
v 0.55000 1.62000 0.00000
v 0.55000 2.24000 0.00000
v 0.75000 1.62000 0.00000
v 0.55000 1.62000 0.20000
v 0.35000 1.62000 0.00000
v 0.55000 1.62000 -0.20000
v -0.17000 1.77000 0.28000
v 0.17000 1.77000 0.28000
v 0.17000 1.95000 0.28000
v -0.17000 1.95000 0.28000
v -0.17000 1.77000 0.48000
v 0.17000 1.77000 0.48000
v 0.17000 1.95000 0.48000
v -0.17000 1.95000 0.48000
usemtl leather
f 1 2 3 4
f 6 5 8 7
f 5 1 4 8
f 2 6 7 3
f 4 3 7 8
f 5 6 2 1
f 9 10 11 12
f 14 13 16 15
f 13 9 12 16
f 10 14 15 11
f 12 11 15 16
f 13 14 10 9
usemtl dark_green
f 17 18 19 20
f 22 21 24 23
f 21 17 20 24
f 18 22 23 19
f 20 19 23 24
f 21 22 18 17
usemtl green
f 25 26 27 28
f 30 29 32 31
f 29 25 28 32
f 26 30 31 27
f 28 27 31 32
f 29 30 26 25
f 33 34 35 36
f 38 37 40 39
f 37 33 36 40
f 34 38 39 35
f 36 35 39 40
f 37 38 34 33
f 41 42 43 44
f 46 45 48 47
f 45 41 44 48
f 42 46 47 43
f 44 43 47 48
f 45 46 42 41
f 51 52 50
f 49 52 51
f 52 53 50
f 49 53 52
f 53 54 50
f 49 54 53
f 54 51 50
f 49 51 54
f 57 58 56
f 55 58 57
f 58 59 56
f 55 59 58
f 59 60 56
f 55 60 59
f 60 57 56
f 55 57 60
f 61 62 63 64
f 66 65 68 67
f 65 61 64 68
f 62 66 67 63
f 64 63 67 68
f 65 66 62 61
