# Generated low-poly placeholder
mtllib ../../materials/low_poly.mtl
o models/vfx/basic_attack.obj
s off
v 0.00000 0.32000 0.00000
v 0.32000 0.00000 0.00000
v 0.00000 0.00000 0.32000
v 0.00000 0.32000 0.00000
v 0.00000 0.00000 0.32000
v -0.32000 0.00000 0.00000
v 0.00000 0.32000 0.00000
v -0.32000 0.00000 0.00000
v 0.00000 0.00000 -0.32000
v 0.00000 0.32000 0.00000
v 0.00000 0.00000 -0.32000
v 0.32000 0.00000 0.00000
v 0.00000 -0.32000 0.00000
v 0.00000 0.00000 0.32000
v 0.32000 0.00000 0.00000
v 0.00000 -0.32000 0.00000
v -0.32000 0.00000 0.00000
v 0.00000 0.00000 0.32000
v 0.00000 -0.32000 0.00000
v 0.00000 0.00000 -0.32000
v -0.32000 0.00000 0.00000
v 0.00000 -0.32000 0.00000
v 0.32000 0.00000 0.00000
v 0.00000 0.00000 -0.32000
v 0.75000 -0.35000 0.00000
v 0.75000 0.35000 0.00000
v 0.87000 -0.35000 0.00000
v 0.78708 -0.35000 0.11413
v 0.65292 -0.35000 0.07053
v 0.65292 -0.35000 -0.07053
v 0.78708 -0.35000 -0.11413
v -0.75000 -0.35000 0.00000
v -0.75000 0.35000 0.00000
v -0.63000 -0.35000 0.00000
v -0.71292 -0.35000 0.11413
v -0.84708 -0.35000 0.07053
v -0.84708 -0.35000 -0.07053
v -0.71292 -0.35000 -0.11413
v 0.00000 0.40000 0.00000
v 0.00000 1.10000 0.00000
v 0.12000 0.40000 0.00000
v 0.03708 0.40000 0.11413
v -0.09708 0.40000 0.07053
v -0.09708 0.40000 -0.07053
v 0.03708 0.40000 -0.11413
v 0.00000 -1.10000 0.00000
v 0.00000 -0.40000 0.00000
v 0.12000 -1.10000 0.00000
v 0.03708 -1.10000 0.11413
v -0.09708 -1.10000 0.07053
v -0.09708 -1.10000 -0.07053
v 0.03708 -1.10000 -0.11413
v 0.00000 -0.35000 0.75000
v 0.00000 0.35000 0.75000
v 0.12000 -0.35000 0.75000
v 0.03708 -0.35000 0.86413
v -0.09708 -0.35000 0.82053
v -0.09708 -0.35000 0.67947
v 0.03708 -0.35000 0.63587
v 0.00000 -0.35000 -0.75000
v 0.00000 0.35000 -0.75000
v 0.12000 -0.35000 -0.75000
v 0.03708 -0.35000 -0.63587
v -0.09708 -0.35000 -0.67947
v -0.09708 -0.35000 -0.82053
v 0.03708 -0.35000 -0.86413
usemtl silver
f 1 2 3
f 4 5 6
f 7 8 9
f 10 11 12
f 13 14 15
f 16 17 18
f 19 20 21
f 22 23 24
f 27 28 26
f 25 28 27
f 28 29 26
f 25 29 28
f 29 30 26
f 25 30 29
f 30 31 26
f 25 31 30
f 31 27 26
f 25 27 31
f 34 35 33
f 32 35 34
f 35 36 33
f 32 36 35
f 36 37 33
f 32 37 36
f 37 38 33
f 32 38 37
f 38 34 33
f 32 34 38
f 41 42 40
f 39 42 41
f 42 43 40
f 39 43 42
f 43 44 40
f 39 44 43
f 44 45 40
f 39 45 44
f 45 41 40
f 39 41 45
f 48 49 47
f 46 49 48
f 49 50 47
f 46 50 49
f 50 51 47
f 46 51 50
f 51 52 47
f 46 52 51
f 52 48 47
f 46 48 52
f 55 56 54
f 53 56 55
f 56 57 54
f 53 57 56
f 57 58 54
f 53 58 57
f 58 59 54
f 53 59 58
f 59 55 54
f 53 55 59
f 62 63 61
f 60 63 62
f 63 64 61
f 60 64 63
f 64 65 61
f 60 65 64
f 65 66 61
f 60 66 65
f 66 62 61
f 60 62 66
