# Generated low-poly placeholder
mtllib ../../materials/low_poly.mtl
o models/vfx/fireball.obj
s off
v 0.00000 0.58000 0.00000
v 0.58000 0.00000 0.00000
v 0.00000 0.00000 0.58000
v 0.00000 0.58000 0.00000
v 0.00000 0.00000 0.58000
v -0.58000 0.00000 0.00000
v 0.00000 0.58000 0.00000
v -0.58000 0.00000 0.00000
v 0.00000 0.00000 -0.58000
v 0.00000 0.58000 0.00000
v 0.00000 0.00000 -0.58000
v 0.58000 0.00000 0.00000
v 0.00000 -0.58000 0.00000
v 0.00000 0.00000 0.58000
v 0.58000 0.00000 0.00000
v 0.00000 -0.58000 0.00000
v -0.58000 0.00000 0.00000
v 0.00000 0.00000 0.58000
v 0.00000 -0.58000 0.00000
v 0.00000 0.00000 -0.58000
v -0.58000 0.00000 0.00000
v 0.00000 -0.58000 0.00000
v 0.58000 0.00000 0.00000
v 0.00000 0.00000 -0.58000
v 0.40000 0.02500 0.00000
v 0.40000 0.77500 0.00000
v 0.56000 0.02500 0.00000
v 0.44944 0.02500 0.15217
v 0.27056 0.02500 0.09405
v 0.27056 0.02500 -0.09405
v 0.44944 0.02500 -0.15217
v -0.40000 -0.07500 0.10000
v -0.40000 0.67500 0.10000
v -0.24000 -0.07500 0.10000
v -0.35056 -0.07500 0.25217
v -0.52944 -0.07500 0.19405
v -0.52944 -0.07500 0.00595
v -0.35056 -0.07500 -0.05217
v 0.10000 -0.67500 0.40000
v 0.10000 0.07500 0.40000
v 0.26000 -0.67500 0.40000
v 0.14944 -0.67500 0.55217
v -0.02944 -0.67500 0.49405
v -0.02944 -0.67500 0.30595
v 0.14944 -0.67500 0.24783
v 0.00000 -0.27500 -0.45000
v 0.00000 0.47500 -0.45000
v 0.16000 -0.27500 -0.45000
v 0.04944 -0.27500 -0.29783
v -0.12944 -0.27500 -0.35595
v -0.12944 -0.27500 -0.54405
v 0.04944 -0.27500 -0.60217
usemtl fire
f 1 2 3
f 4 5 6
f 7 8 9
f 10 11 12
f 13 14 15
f 16 17 18
f 19 20 21
f 22 23 24
usemtl gold
f 27 28 26
f 25 28 27
f 28 29 26
f 25 29 28
f 29 30 26
f 25 30 29
f 30 31 26
f 25 31 30
f 31 27 26
f 25 27 31
f 34 35 33
f 32 35 34
f 35 36 33
f 32 36 35
f 36 37 33
f 32 37 36
f 37 38 33
f 32 38 37
f 38 34 33
f 32 34 38
f 41 42 40
f 39 42 41
f 42 43 40
f 39 43 42
f 43 44 40
f 39 44 43
f 44 45 40
f 39 45 44
f 45 41 40
f 39 41 45
f 48 49 47
f 46 49 48
f 49 50 47
f 46 50 49
f 50 51 47
f 46 51 50
f 51 52 47
f 46 52 51
f 52 48 47
f 46 48 52
