# Generated low-poly placeholder
mtllib ../../materials/low_poly.mtl
o models/vfx/heal_burst.obj
s off
v 0.00000 0.00000 0.00000
v 0.00000 0.08000 0.00000
v 0.95000 0.00000 0.00000
v 0.95000 0.08000 0.00000
v 0.82272 0.00000 0.47500
v 0.82272 0.08000 0.47500
v 0.47500 0.00000 0.82272
v 0.47500 0.08000 0.82272
v 0.00000 0.00000 0.95000
v 0.00000 0.08000 0.95000
v -0.47500 0.00000 0.82272
v -0.47500 0.08000 0.82272
v -0.82272 0.00000 0.47500
v -0.82272 0.08000 0.47500
v -0.95000 0.00000 0.00000
v -0.95000 0.08000 0.00000
v -0.82272 0.00000 -0.47500
v -0.82272 0.08000 -0.47500
v -0.47500 0.00000 -0.82272
v -0.47500 0.08000 -0.82272
v -0.00000 0.00000 -0.95000
v -0.00000 0.08000 -0.95000
v 0.47500 0.00000 -0.82272
v 0.47500 0.08000 -0.82272
v 0.82272 0.00000 -0.47500
v 0.82272 0.08000 -0.47500
v 0.72000 0.00000 0.00000
v 0.72000 1.30000 0.00000
v 0.82000 0.00000 0.00000
v 0.75090 0.00000 0.09511
v 0.63910 0.00000 0.05878
v 0.63910 0.00000 -0.05878
v 0.75090 0.00000 -0.09511
v 0.50912 0.00000 0.50912
v 0.50912 1.30000 0.50912
v 0.60912 0.00000 0.50912
v 0.54002 0.00000 0.60422
v 0.42822 0.00000 0.56790
v 0.42822 0.00000 0.45034
v 0.54002 0.00000 0.41401
v 0.00000 0.00000 0.72000
v 0.00000 1.30000 0.72000
v 0.10000 0.00000 0.72000
v 0.03090 0.00000 0.81511
v -0.08090 0.00000 0.77878
v -0.08090 0.00000 0.66122
v 0.03090 0.00000 0.62489
v -0.50912 0.00000 0.50912
v -0.50912 1.30000 0.50912
v -0.40912 0.00000 0.50912
v -0.47822 0.00000 0.60422
v -0.59002 0.00000 0.56790
v -0.59002 0.00000 0.45034
v -0.47822 0.00000 0.41401
v -0.72000 0.00000 0.00000
v -0.72000 1.30000 0.00000
v -0.62000 0.00000 0.00000
v -0.68910 0.00000 0.09511
v -0.80090 0.00000 0.05878
v -0.80090 0.00000 -0.05878
v -0.68910 0.00000 -0.09511
v -0.50912 0.00000 -0.50912
v -0.50912 1.30000 -0.50912
v -0.40912 0.00000 -0.50912
v -0.47822 0.00000 -0.41401
v -0.59002 0.00000 -0.45034
v -0.59002 0.00000 -0.56790
v -0.47822 0.00000 -0.60422
v -0.00000 0.00000 -0.72000
v -0.00000 1.30000 -0.72000
v 0.10000 0.00000 -0.72000
v 0.03090 0.00000 -0.62489
v -0.08090 0.00000 -0.66122
v -0.08090 0.00000 -0.77878
v 0.03090 0.00000 -0.81511
v 0.50912 0.00000 -0.50912
v 0.50912 1.30000 -0.50912
v 0.60912 0.00000 -0.50912
v 0.54002 0.00000 -0.41401
v 0.42822 0.00000 -0.45034
v 0.42822 0.00000 -0.56790
v 0.54002 0.00000 -0.60422
usemtl heal
f 3 5 6 4
f 1 5 3
f 2 4 6
f 5 7 8 6
f 1 7 5
f 2 6 8
f 7 9 10 8
f 1 9 7
f 2 8 10
f 9 11 12 10
f 1 11 9
f 2 10 12
f 11 13 14 12
f 1 13 11
f 2 12 14
f 13 15 16 14
f 1 15 13
f 2 14 16
f 15 17 18 16
f 1 17 15
f 2 16 18
f 17 19 20 18
f 1 19 17
f 2 18 20
f 19 21 22 20
f 1 21 19
f 2 20 22
f 21 23 24 22
f 1 23 21
f 2 22 24
f 23 25 26 24
f 1 25 23
f 2 24 26
f 25 3 4 26
f 1 3 25
f 2 26 4
f 29 30 28
f 27 30 29
f 30 31 28
f 27 31 30
f 31 32 28
f 27 32 31
f 32 33 28
f 27 33 32
f 33 29 28
f 27 29 33
f 36 37 35
f 34 37 36
f 37 38 35
f 34 38 37
f 38 39 35
f 34 39 38
f 39 40 35
f 34 40 39
f 40 36 35
f 34 36 40
f 43 44 42
f 41 44 43
f 44 45 42
f 41 45 44
f 45 46 42
f 41 46 45
f 46 47 42
f 41 47 46
f 47 43 42
f 41 43 47
f 50 51 49
f 48 51 50
f 51 52 49
f 48 52 51
f 52 53 49
f 48 53 52
f 53 54 49
f 48 54 53
f 54 50 49
f 48 50 54
f 57 58 56
f 55 58 57
f 58 59 56
f 55 59 58
f 59 60 56
f 55 60 59
f 60 61 56
f 55 61 60
f 61 57 56
f 55 57 61
f 64 65 63
f 62 65 64
f 65 66 63
f 62 66 65
f 66 67 63
f 62 67 66
f 67 68 63
f 62 68 67
f 68 64 63
f 62 64 68
f 71 72 70
f 69 72 71
f 72 73 70
f 69 73 72
f 73 74 70
f 69 74 73
f 74 75 70
f 69 75 74
f 75 71 70
f 69 71 75
f 78 79 77
f 76 79 78
f 79 80 77
f 76 80 79
f 80 81 77
f 76 81 80
f 81 82 77
f 76 82 81
f 82 78 77
f 76 78 82
