# Generated low-poly placeholder
mtllib ../../materials/low_poly.mtl
o models/environment/combat_arena.obj
s off
v 0.00000 -0.24000 0.00000
v 0.00000 0.00000 0.00000
v 7.20000 -0.24000 0.00000
v 7.20000 0.00000 0.00000
v 6.23538 -0.24000 3.60000
v 6.23538 0.00000 3.60000
v 3.60000 -0.24000 6.23538
v 3.60000 0.00000 6.23538
v 0.00000 -0.24000 7.20000
v 0.00000 0.00000 7.20000
v -3.60000 -0.24000 6.23538
v -3.60000 0.00000 6.23538
v -6.23538 -0.24000 3.60000
v -6.23538 0.00000 3.60000
v -7.20000 -0.24000 0.00000
v -7.20000 0.00000 0.00000
v -6.23538 -0.24000 -3.60000
v -6.23538 0.00000 -3.60000
v -3.60000 -0.24000 -6.23538
v -3.60000 0.00000 -6.23538
v -0.00000 -0.24000 -7.20000
v -0.00000 0.00000 -7.20000
v 3.60000 -0.24000 -6.23538
v 3.60000 0.00000 -6.23538
v 6.23538 -0.24000 -3.60000
v 6.23538 0.00000 -3.60000
v 6.80000 0.00000 0.00000
v 6.80000 1.40000 0.00000
v 7.08000 0.00000 0.00000
v 7.08000 1.40000 0.00000
v 6.94000 0.00000 0.24249
v 6.94000 1.40000 0.24249
v 6.66000 0.00000 0.24249
v 6.66000 1.40000 0.24249
v 6.52000 0.00000 0.00000
v 6.52000 1.40000 0.00000
v 6.66000 0.00000 -0.24249
v 6.66000 1.40000 -0.24249
v 6.94000 0.00000 -0.24249
v 6.94000 1.40000 -0.24249
v 5.88897 0.00000 3.40000
v 5.88897 1.40000 3.40000
v 6.16897 0.00000 3.40000
v 6.16897 1.40000 3.40000
v 6.02897 0.00000 3.64249
v 6.02897 1.40000 3.64249
v 5.74897 0.00000 3.64249
v 5.74897 1.40000 3.64249
v 5.60897 0.00000 3.40000
v 5.60897 1.40000 3.40000
v 5.74897 0.00000 3.15751
v 5.74897 1.40000 3.15751
v 6.02897 0.00000 3.15751
v 6.02897 1.40000 3.15751
v 3.40000 0.00000 5.88897
v 3.40000 1.40000 5.88897
v 3.68000 0.00000 5.88897
v 3.68000 1.40000 5.88897
v 3.54000 0.00000 6.13146
v 3.54000 1.40000 6.13146
v 3.26000 0.00000 6.13146
v 3.26000 1.40000 6.13146
v 3.12000 0.00000 5.88897
v 3.12000 1.40000 5.88897
v 3.26000 0.00000 5.64649
v 3.26000 1.40000 5.64649
v 3.54000 0.00000 5.64649
v 3.54000 1.40000 5.64649
v 0.00000 0.00000 6.80000
v 0.00000 1.40000 6.80000
v 0.28000 0.00000 6.80000
v 0.28000 1.40000 6.80000
v 0.14000 0.00000 7.04249
v 0.14000 1.40000 7.04249
v -0.14000 0.00000 7.04249
v -0.14000 1.40000 7.04249
v -0.28000 0.00000 6.80000
v -0.28000 1.40000 6.80000
v -0.14000 0.00000 6.55751
v -0.14000 1.40000 6.55751
v 0.14000 0.00000 6.55751
v 0.14000 1.40000 6.55751
v -3.40000 0.00000 5.88897
v -3.40000 1.40000 5.88897
v -3.12000 0.00000 5.88897
v -3.12000 1.40000 5.88897
v -3.26000 0.00000 6.13146
v -3.26000 1.40000 6.13146
v -3.54000 0.00000 6.13146
v -3.54000 1.40000 6.13146
v -3.68000 0.00000 5.88897
v -3.68000 1.40000 5.88897
v -3.54000 0.00000 5.64649
v -3.54000 1.40000 5.64649
v -3.26000 0.00000 5.64649
v -3.26000 1.40000 5.64649
v -5.88897 0.00000 3.40000
v -5.88897 1.40000 3.40000
v -5.60897 0.00000 3.40000
v -5.60897 1.40000 3.40000
v -5.74897 0.00000 3.64249
v -5.74897 1.40000 3.64249
v -6.02897 0.00000 3.64249
v -6.02897 1.40000 3.64249
v -6.16897 0.00000 3.40000
v -6.16897 1.40000 3.40000
v -6.02897 0.00000 3.15751
v -6.02897 1.40000 3.15751
v -5.74897 0.00000 3.15751
v -5.74897 1.40000 3.15751
v -6.80000 0.00000 0.00000
v -6.80000 1.40000 0.00000
v -6.52000 0.00000 0.00000
v -6.52000 1.40000 0.00000
v -6.66000 0.00000 0.24249
v -6.66000 1.40000 0.24249
v -6.94000 0.00000 0.24249
v -6.94000 1.40000 0.24249
v -7.08000 0.00000 0.00000
v -7.08000 1.40000 0.00000
v -6.94000 0.00000 -0.24249
v -6.94000 1.40000 -0.24249
v -6.66000 0.00000 -0.24249
v -6.66000 1.40000 -0.24249
v -5.88897 0.00000 -3.40000
v -5.88897 1.40000 -3.40000
v -5.60897 0.00000 -3.40000
v -5.60897 1.40000 -3.40000
v -5.74897 0.00000 -3.15751
v -5.74897 1.40000 -3.15751
v -6.02897 0.00000 -3.15751
v -6.02897 1.40000 -3.15751
v -6.16897 0.00000 -3.40000
v -6.16897 1.40000 -3.40000
v -6.02897 0.00000 -3.64249
v -6.02897 1.40000 -3.64249
v -5.74897 0.00000 -3.64249
v -5.74897 1.40000 -3.64249
v -3.40000 0.00000 -5.88897
v -3.40000 1.40000 -5.88897
v -3.12000 0.00000 -5.88897
v -3.12000 1.40000 -5.88897
v -3.26000 0.00000 -5.64649
v -3.26000 1.40000 -5.64649
v -3.54000 0.00000 -5.64649
v -3.54000 1.40000 -5.64649
v -3.68000 0.00000 -5.88897
v -3.68000 1.40000 -5.88897
v -3.54000 0.00000 -6.13146
v -3.54000 1.40000 -6.13146
v -3.26000 0.00000 -6.13146
v -3.26000 1.40000 -6.13146
v -0.00000 0.00000 -6.80000
v -0.00000 1.40000 -6.80000
v 0.28000 0.00000 -6.80000
v 0.28000 1.40000 -6.80000
v 0.14000 0.00000 -6.55751
v 0.14000 1.40000 -6.55751
v -0.14000 0.00000 -6.55751
v -0.14000 1.40000 -6.55751
v -0.28000 0.00000 -6.80000
v -0.28000 1.40000 -6.80000
v -0.14000 0.00000 -7.04249
v -0.14000 1.40000 -7.04249
v 0.14000 0.00000 -7.04249
v 0.14000 1.40000 -7.04249
v 3.40000 0.00000 -5.88897
v 3.40000 1.40000 -5.88897
v 3.68000 0.00000 -5.88897
v 3.68000 1.40000 -5.88897
v 3.54000 0.00000 -5.64649
v 3.54000 1.40000 -5.64649
v 3.26000 0.00000 -5.64649
v 3.26000 1.40000 -5.64649
v 3.12000 0.00000 -5.88897
v 3.12000 1.40000 -5.88897
v 3.26000 0.00000 -6.13146
v 3.26000 1.40000 -6.13146
v 3.54000 0.00000 -6.13146
v 3.54000 1.40000 -6.13146
v 5.88897 0.00000 -3.40000
v 5.88897 1.40000 -3.40000
v 6.16897 0.00000 -3.40000
v 6.16897 1.40000 -3.40000
v 6.02897 0.00000 -3.15751
v 6.02897 1.40000 -3.15751
v 5.74897 0.00000 -3.15751
v 5.74897 1.40000 -3.15751
v 5.60897 0.00000 -3.40000
v 5.60897 1.40000 -3.40000
v 5.74897 0.00000 -3.64249
v 5.74897 1.40000 -3.64249
v 6.02897 0.00000 -3.64249
v 6.02897 1.40000 -3.64249
usemtl sand
f 3 5 6 4
f 1 5 3
f 2 4 6
f 5 7 8 6
f 1 7 5
f 2 6 8
f 7 9 10 8
f 1 9 7
f 2 8 10
f 9 11 12 10
f 1 11 9
f 2 10 12
f 11 13 14 12
f 1 13 11
f 2 12 14
f 13 15 16 14
f 1 15 13
f 2 14 16
f 15 17 18 16
f 1 17 15
f 2 16 18
f 17 19 20 18
f 1 19 17
f 2 18 20
f 19 21 22 20
f 1 21 19
f 2 20 22
f 21 23 24 22
f 1 23 21
f 2 22 24
f 23 25 26 24
f 1 25 23
f 2 24 26
f 25 3 4 26
f 1 3 25
f 2 26 4
usemtl stone
f 29 31 32 30
f 27 31 29
f 28 30 32
f 31 33 34 32
f 27 33 31
f 28 32 34
f 33 35 36 34
f 27 35 33
f 28 34 36
f 35 37 38 36
f 27 37 35
f 28 36 38
f 37 39 40 38
f 27 39 37
f 28 38 40
f 39 29 30 40
f 27 29 39
f 28 40 30
f 43 45 46 44
f 41 45 43
f 42 44 46
f 45 47 48 46
f 41 47 45
f 42 46 48
f 47 49 50 48
f 41 49 47
f 42 48 50
f 49 51 52 50
f 41 51 49
f 42 50 52
f 51 53 54 52
f 41 53 51
f 42 52 54
f 53 43 44 54
f 41 43 53
f 42 54 44
f 57 59 60 58
f 55 59 57
f 56 58 60
f 59 61 62 60
f 55 61 59
f 56 60 62
f 61 63 64 62
f 55 63 61
f 56 62 64
f 63 65 66 64
f 55 65 63
f 56 64 66
f 65 67 68 66
f 55 67 65
f 56 66 68
f 67 57 58 68
f 55 57 67
f 56 68 58
f 71 73 74 72
f 69 73 71
f 70 72 74
f 73 75 76 74
f 69 75 73
f 70 74 76
f 75 77 78 76
f 69 77 75
f 70 76 78
f 77 79 80 78
f 69 79 77
f 70 78 80
f 79 81 82 80
f 69 81 79
f 70 80 82
f 81 71 72 82
f 69 71 81
f 70 82 72
f 85 87 88 86
f 83 87 85
f 84 86 88
f 87 89 90 88
f 83 89 87
f 84 88 90
f 89 91 92 90
f 83 91 89
f 84 90 92
f 91 93 94 92
f 83 93 91
f 84 92 94
f 93 95 96 94
f 83 95 93
f 84 94 96
f 95 85 86 96
f 83 85 95
f 84 96 86
f 99 101 102 100
f 97 101 99
f 98 100 102
f 101 103 104 102
f 97 103 101
f 98 102 104
f 103 105 106 104
f 97 105 103
f 98 104 106
f 105 107 108 106
f 97 107 105
f 98 106 108
f 107 109 110 108
f 97 109 107
f 98 108 110
f 109 99 100 110
f 97 99 109
f 98 110 100
f 113 115 116 114
f 111 115 113
f 112 114 116
f 115 117 118 116
f 111 117 115
f 112 116 118
f 117 119 120 118
f 111 119 117
f 112 118 120
f 119 121 122 120
f 111 121 119
f 112 120 122
f 121 123 124 122
f 111 123 121
f 112 122 124
f 123 113 114 124
f 111 113 123
f 112 124 114
f 127 129 130 128
f 125 129 127
f 126 128 130
f 129 131 132 130
f 125 131 129
f 126 130 132
f 131 133 134 132
f 125 133 131
f 126 132 134
f 133 135 136 134
f 125 135 133
f 126 134 136
f 135 137 138 136
f 125 137 135
f 126 136 138
f 137 127 128 138
f 125 127 137
f 126 138 128
f 141 143 144 142
f 139 143 141
f 140 142 144
f 143 145 146 144
f 139 145 143
f 140 144 146
f 145 147 148 146
f 139 147 145
f 140 146 148
f 147 149 150 148
f 139 149 147
f 140 148 150
f 149 151 152 150
f 139 151 149
f 140 150 152
f 151 141 142 152
f 139 141 151
f 140 152 142
f 155 157 158 156
f 153 157 155
f 154 156 158
f 157 159 160 158
f 153 159 157
f 154 158 160
f 159 161 162 160
f 153 161 159
f 154 160 162
f 161 163 164 162
f 153 163 161
f 154 162 164
f 163 165 166 164
f 153 165 163
f 154 164 166
f 165 155 156 166
f 153 155 165
f 154 166 156
f 169 171 172 170
f 167 171 169
f 168 170 172
f 171 173 174 172
f 167 173 171
f 168 172 174
f 173 175 176 174
f 167 175 173
f 168 174 176
f 175 177 178 176
f 167 177 175
f 168 176 178
f 177 179 180 178
f 167 179 177
f 168 178 180
f 179 169 170 180
f 167 169 179
f 168 180 170
f 183 185 186 184
f 181 185 183
f 182 184 186
f 185 187 188 186
f 181 187 185
f 182 186 188
f 187 189 190 188
f 181 189 187
f 182 188 190
f 189 191 192 190
f 181 191 189
f 182 190 192
f 191 193 194 192
f 181 193 191
f 182 192 194
f 193 183 184 194
f 181 183 193
f 182 194 184
