# Generated low-poly placeholder
mtllib ../../materials/low_poly.mtl
o models/environment/forge.obj
s off
v -1.55000 0.00000 -0.70000
v -0.05000 0.00000 -0.70000
v -0.05000 1.50000 -0.70000
v -1.55000 1.50000 -0.70000
v -1.55000 0.00000 0.70000
v -0.05000 0.00000 0.70000
v -0.05000 1.50000 0.70000
v -1.55000 1.50000 0.70000
v -1.10000 1.40000 -0.30000
v -0.50000 1.40000 -0.30000
v -0.50000 2.40000 -0.30000
v -1.10000 2.40000 -0.30000
v -1.10000 1.40000 0.30000
v -0.50000 1.40000 0.30000
v -0.50000 2.40000 0.30000
v -1.10000 2.40000 0.30000
v -1.22500 0.30000 0.64000
v -0.37500 0.30000 0.64000
v -0.37500 1.00000 0.64000
v -1.22500 1.00000 0.64000
v -1.22500 0.30000 0.80000
v -0.37500 0.30000 0.80000
v -0.37500 1.00000 0.80000
v -1.22500 1.00000 0.80000
v 0.35000 0.51000 -0.26000
v 1.75000 0.51000 -0.26000
v 1.75000 0.79000 -0.26000
v 0.35000 0.79000 -0.26000
v 0.35000 0.51000 0.26000
v 1.75000 0.51000 0.26000
v 1.75000 0.79000 0.26000
v 0.35000 0.79000 0.26000
v 0.86000 -0.00500 -0.19000
v 1.24000 -0.00500 -0.19000
v 1.24000 0.64500 -0.19000
v 0.86000 0.64500 -0.19000
v 0.86000 -0.00500 0.19000
v 1.24000 -0.00500 0.19000
v 1.24000 0.64500 0.19000
v 0.86000 0.64500 0.19000
v 1.70000 0.41500 0.00000
v 1.70000 1.06500 0.00000
v 2.04000 0.41500 0.00000
v 1.70000 0.41500 0.34000
v 1.36000 0.41500 0.00000
v 1.70000 0.41500 -0.34000
usemtl stone
f 1 2 3 4
f 6 5 8 7
f 5 1 4 8
f 2 6 7 3
f 4 3 7 8
f 5 6 2 1
f 9 10 11 12
f 14 13 16 15
f 13 9 12 16
f 10 14 15 11
f 12 11 15 16
f 13 14 10 9
usemtl fire
f 17 18 19 20
f 22 21 24 23
f 21 17 20 24
f 18 22 23 19
f 20 19 23 24
f 21 22 18 17
usemtl iron
f 25 26 27 28
f 30 29 32 31
f 29 25 28 32
f 26 30 31 27
f 28 27 31 32
f 29 30 26 25
f 33 34 35 36
f 38 37 40 39
f 37 33 36 40
f 34 38 39 35
f 36 35 39 40
f 37 38 34 33
f 43 44 42
f 41 44 43
f 44 45 42
f 41 45 44
f 45 46 42
f 41 46 45
f 46 43 42
f 41 43 46
