# Generated low-poly placeholder
mtllib ../../materials/low_poly.mtl
o models/environment/merchant_stall.obj
s off
v -1.79000 0.00000 -0.09000
v -1.61000 0.00000 -0.09000
v -1.61000 3.00000 -0.09000
v -1.79000 3.00000 -0.09000
v -1.79000 0.00000 0.09000
v -1.61000 0.00000 0.09000
v -1.61000 3.00000 0.09000
v -1.79000 3.00000 0.09000
v 1.61000 0.00000 -0.09000
v 1.79000 0.00000 -0.09000
v 1.79000 3.00000 -0.09000
v 1.61000 3.00000 -0.09000
v 1.61000 0.00000 0.09000
v 1.79000 0.00000 0.09000
v 1.79000 3.00000 0.09000
v 1.61000 3.00000 0.09000
v -1.85000 0.95000 -0.60000
v 1.85000 0.95000 -0.60000
v 1.85000 1.15000 -0.60000
v -1.85000 1.15000 -0.60000
v -1.85000 0.95000 0.60000
v 1.85000 0.95000 0.60000
v 1.85000 1.15000 0.60000
v -1.85000 1.15000 0.60000
v -2.10000 2.90000 -0.90000
v 2.10000 2.90000 -0.90000
v 0.00000 3.55000 -0.90000
v 0.00000 3.55000 0.90000
v 2.10000 2.90000 0.90000
v -2.10000 2.90000 0.90000
v -2.10000 2.90000 -0.90000
v -2.10000 2.90000 0.90000
v 2.10000 2.90000 0.90000
v 2.10000 2.90000 -0.90000
v 2.10000 2.90000 -0.90000
v 2.10000 2.90000 0.90000
v 0.00000 3.55000 0.90000
v 0.00000 3.55000 -0.90000
v 0.00000 3.55000 -0.90000
v 0.00000 3.55000 0.90000
v -2.10000 2.90000 0.90000
v -2.10000 2.90000 -0.90000
v -1.45000 1.07500 -0.45000
v -0.65000 1.07500 -0.45000
v -0.65000 1.42500 -0.45000
v -1.45000 1.42500 -0.45000
v -1.45000 1.07500 0.25000
v -0.65000 1.07500 0.25000
v -0.65000 1.42500 0.25000
v -1.45000 1.42500 0.25000
v -0.40000 1.07500 -0.45000
v 0.40000 1.07500 -0.45000
v 0.40000 1.42500 -0.45000
v -0.40000 1.42500 -0.45000
v -0.40000 1.07500 0.25000
v 0.40000 1.07500 0.25000
v 0.40000 1.42500 0.25000
v -0.40000 1.42500 0.25000
v 0.65000 1.07500 -0.45000
v 1.45000 1.07500 -0.45000
v 1.45000 1.42500 -0.45000
v 0.65000 1.42500 -0.45000
v 0.65000 1.07500 0.25000
v 1.45000 1.07500 0.25000
v 1.45000 1.42500 0.25000
v 0.65000 1.42500 0.25000
usemtl wood
f 1 2 3 4
f 6 5 8 7
f 5 1 4 8
f 2 6 7 3
f 4 3 7 8
f 5 6 2 1
f 9 10 11 12
f 14 13 16 15
f 13 9 12 16
f 10 14 15 11
f 12 11 15 16
f 13 14 10 9
f 17 18 19 20
f 22 21 24 23
f 21 17 20 24
f 18 22 23 19
f 20 19 23 24
f 21 22 18 17
usemtl red
f 25 26 27
f 28 29 30
f 31 32 33 34
f 35 36 37 38
f 39 40 41 42
usemtl sand
f 43 44 45 46
f 48 47 50 49
f 47 43 46 50
f 44 48 49 45
f 46 45 49 50
f 47 48 44 43
f 51 52 53 54
f 56 55 58 57
f 55 51 54 58
f 52 56 57 53
f 54 53 57 58
f 55 56 52 51
f 59 60 61 62
f 64 63 66 65
f 63 59 62 66
f 60 64 65 61
f 62 61 65 66
f 63 64 60 59
