# Generated low-poly placeholder
mtllib ../../materials/low_poly.mtl
o models/environment/village_square.obj
s off
v 0.00000 -0.24000 0.00000
v 0.00000 0.00000 0.00000
v 8.50000 -0.24000 0.00000
v 8.50000 0.00000 0.00000
v 7.36122 -0.24000 4.25000
v 7.36122 0.00000 4.25000
v 4.25000 -0.24000 7.36122
v 4.25000 0.00000 7.36122
v 0.00000 -0.24000 8.50000
v 0.00000 0.00000 8.50000
v -4.25000 -0.24000 7.36122
v -4.25000 0.00000 7.36122
v -7.36122 -0.24000 4.25000
v -7.36122 0.00000 4.25000
v -8.50000 -0.24000 0.00000
v -8.50000 0.00000 0.00000
v -7.36122 -0.24000 -4.25000
v -7.36122 0.00000 -4.25000
v -4.25000 -0.24000 -7.36122
v -4.25000 0.00000 -7.36122
v -0.00000 -0.24000 -8.50000
v -0.00000 0.00000 -8.50000
v 4.25000 -0.24000 -7.36122
v 4.25000 0.00000 -7.36122
v 7.36122 -0.24000 -4.25000
v 7.36122 0.00000 -4.25000
v -5.90000 0.00000 -3.95000
v -3.30000 0.00000 -3.95000
v -3.30000 2.40000 -3.95000
v -5.90000 2.40000 -3.95000
v -5.90000 0.00000 -1.65000
v -3.30000 0.00000 -1.65000
v -3.30000 2.40000 -1.65000
v -5.90000 2.40000 -1.65000
v -6.15000 2.40000 -4.20000
v -3.05000 2.40000 -4.20000
v -4.60000 3.40000 -4.20000
v -4.60000 3.40000 -1.40000
v -3.05000 2.40000 -1.40000
v -6.15000 2.40000 -1.40000
v -6.15000 2.40000 -4.20000
v -6.15000 2.40000 -1.40000
v -3.05000 2.40000 -1.40000
v -3.05000 2.40000 -4.20000
v -3.05000 2.40000 -4.20000
v -3.05000 2.40000 -1.40000
v -4.60000 3.40000 -1.40000
v -4.60000 3.40000 -4.20000
v -4.60000 3.40000 -4.20000
v -4.60000 3.40000 -1.40000
v -6.15000 2.40000 -1.40000
v -6.15000 2.40000 -4.20000
v -4.96000 0.02500 -1.68000
v -4.24000 0.02500 -1.68000
v -4.24000 1.47500 -1.68000
v -4.96000 1.47500 -1.68000
v -4.96000 0.02500 -1.56000
v -4.24000 0.02500 -1.56000
v -4.24000 1.47500 -1.56000
v -4.96000 1.47500 -1.56000
v 3.30000 0.00000 -3.55000
v 5.90000 0.00000 -3.55000
v 5.90000 2.40000 -3.55000
v 3.30000 2.40000 -3.55000
v 3.30000 0.00000 -1.25000
v 5.90000 0.00000 -1.25000
v 5.90000 2.40000 -1.25000
v 3.30000 2.40000 -1.25000
v 3.05000 2.40000 -3.80000
v 6.15000 2.40000 -3.80000
v 4.60000 3.40000 -3.80000
v 4.60000 3.40000 -1.00000
v 6.15000 2.40000 -1.00000
v 3.05000 2.40000 -1.00000
v 3.05000 2.40000 -3.80000
v 3.05000 2.40000 -1.00000
v 6.15000 2.40000 -1.00000
v 6.15000 2.40000 -3.80000
v 6.15000 2.40000 -3.80000
v 6.15000 2.40000 -1.00000
v 4.60000 3.40000 -1.00000
v 4.60000 3.40000 -3.80000
v 4.60000 3.40000 -3.80000
v 4.60000 3.40000 -1.00000
v 3.05000 2.40000 -1.00000
v 3.05000 2.40000 -3.80000
v 4.24000 0.02500 -1.28000
v 4.96000 0.02500 -1.28000
v 4.96000 1.47500 -1.28000
v 4.24000 1.47500 -1.28000
v 4.24000 0.02500 -1.16000
v 4.96000 0.02500 -1.16000
v 4.96000 1.47500 -1.16000
v 4.24000 1.47500 -1.16000
v -5.00000 0.00000 2.85000
v -2.40000 0.00000 2.85000
v -2.40000 2.40000 2.85000
v -5.00000 2.40000 2.85000
v -5.00000 0.00000 5.15000
v -2.40000 0.00000 5.15000
v -2.40000 2.40000 5.15000
v -5.00000 2.40000 5.15000
v -5.25000 2.40000 2.60000
v -2.15000 2.40000 2.60000
v -3.70000 3.40000 2.60000
v -3.70000 3.40000 5.40000
v -2.15000 2.40000 5.40000
v -5.25000 2.40000 5.40000
v -5.25000 2.40000 2.60000
v -5.25000 2.40000 5.40000
v -2.15000 2.40000 5.40000
v -2.15000 2.40000 2.60000
v -2.15000 2.40000 2.60000
v -2.15000 2.40000 5.40000
v -3.70000 3.40000 5.40000
v -3.70000 3.40000 2.60000
v -3.70000 3.40000 2.60000
v -3.70000 3.40000 5.40000
v -5.25000 2.40000 5.40000
v -5.25000 2.40000 2.60000
v -4.06000 0.02500 5.12000
v -3.34000 0.02500 5.12000
v -3.34000 1.47500 5.12000
v -4.06000 1.47500 5.12000
v -4.06000 0.02500 5.24000
v -3.34000 0.02500 5.24000
v -3.34000 1.47500 5.24000
v -4.06000 1.47500 5.24000
v 4.70000 0.00000 4.40000
v 4.70000 2.00000 4.40000
v 4.95000 0.00000 4.40000
v 4.95000 2.00000 4.40000
v 4.85587 0.00000 4.59546
v 4.85587 2.00000 4.59546
v 4.64437 0.00000 4.64373
v 4.64437 2.00000 4.64373
v 4.47476 0.00000 4.50847
v 4.47476 2.00000 4.50847
v 4.47476 0.00000 4.29153
v 4.47476 2.00000 4.29153
v 4.64437 0.00000 4.15627
v 4.64437 2.00000 4.15627
v 4.85587 0.00000 4.20454
v 4.85587 2.00000 4.20454
v 4.70000 1.45000 4.40000
v 4.70000 3.85000 4.40000
v 5.85000 1.45000 4.40000
v 5.41701 1.45000 5.29911
v 4.44410 1.45000 5.52117
v 3.66389 1.45000 4.89897
v 3.66389 1.45000 3.90103
v 4.44410 1.45000 3.27883
v 5.41701 1.45000 3.50089
v 1.80000 0.00000 -5.40000
v 1.80000 2.00000 -5.40000
v 2.05000 0.00000 -5.40000
v 2.05000 2.00000 -5.40000
v 1.95587 0.00000 -5.20454
v 1.95587 2.00000 -5.20454
v 1.74437 0.00000 -5.15627
v 1.74437 2.00000 -5.15627
v 1.57476 0.00000 -5.29153
v 1.57476 2.00000 -5.29153
v 1.57476 0.00000 -5.50847
v 1.57476 2.00000 -5.50847
v 1.74437 0.00000 -5.64373
v 1.74437 2.00000 -5.64373
v 1.95587 0.00000 -5.59546
v 1.95587 2.00000 -5.59546
v 1.80000 1.45000 -5.40000
v 1.80000 3.85000 -5.40000
v 2.95000 1.45000 -5.40000
v 2.51701 1.45000 -4.50089
v 1.54410 1.45000 -4.27883
v 0.76389 1.45000 -4.90103
v 0.76389 1.45000 -5.89897
v 1.54410 1.45000 -6.52117
v 2.51701 1.45000 -6.29911
v -6.00000 0.00000 1.30000
v -6.00000 2.00000 1.30000
v -5.75000 0.00000 1.30000
v -5.75000 2.00000 1.30000
v -5.84413 0.00000 1.49546
v -5.84413 2.00000 1.49546
v -6.05563 0.00000 1.54373
v -6.05563 2.00000 1.54373
v -6.22524 0.00000 1.40847
v -6.22524 2.00000 1.40847
v -6.22524 0.00000 1.19153
v -6.22524 2.00000 1.19153
v -6.05563 0.00000 1.05627
v -6.05563 2.00000 1.05627
v -5.84413 0.00000 1.10454
v -5.84413 2.00000 1.10454
v -6.00000 1.45000 1.30000
v -6.00000 3.85000 1.30000
v -4.85000 1.45000 1.30000
v -5.28299 1.45000 2.19911
v -6.25590 1.45000 2.42117
v -7.03611 1.45000 1.79897
v -7.03611 1.45000 0.80103
v -6.25590 1.45000 0.17883
v -5.28299 1.45000 0.40089
usemtl grass
f 3 5 6 4
f 1 5 3
f 2 4 6
f 5 7 8 6
f 1 7 5
f 2 6 8
f 7 9 10 8
f 1 9 7
f 2 8 10
f 9 11 12 10
f 1 11 9
f 2 10 12
f 11 13 14 12
f 1 13 11
f 2 12 14
f 13 15 16 14
f 1 15 13
f 2 14 16
f 15 17 18 16
f 1 17 15
f 2 16 18
f 17 19 20 18
f 1 19 17
f 2 18 20
f 19 21 22 20
f 1 21 19
f 2 20 22
f 21 23 24 22
f 1 23 21
f 2 22 24
f 23 25 26 24
f 1 25 23
f 2 24 26
f 25 3 4 26
f 1 3 25
f 2 26 4
usemtl stone
f 27 28 29 30
f 32 31 34 33
f 31 27 30 34
f 28 32 33 29
f 30 29 33 34
f 31 32 28 27
usemtl red
f 35 36 37
f 38 39 40
f 41 42 43 44
f 45 46 47 48
f 49 50 51 52
usemtl wood
f 53 54 55 56
f 58 57 60 59
f 57 53 56 60
f 54 58 59 55
f 56 55 59 60
f 57 58 54 53
usemtl stone
f 61 62 63 64
f 66 65 68 67
f 65 61 64 68
f 62 66 67 63
f 64 63 67 68
f 65 66 62 61
usemtl red
f 69 70 71
f 72 73 74
f 75 76 77 78
f 79 80 81 82
f 83 84 85 86
usemtl wood
f 87 88 89 90
f 92 91 94 93
f 91 87 90 94
f 88 92 93 89
f 90 89 93 94
f 91 92 88 87
usemtl stone
f 95 96 97 98
f 100 99 102 101
f 99 95 98 102
f 96 100 101 97
f 98 97 101 102
f 99 100 96 95
usemtl red
f 103 104 105
f 106 107 108
f 109 110 111 112
f 113 114 115 116
f 117 118 119 120
usemtl wood
f 121 122 123 124
f 126 125 128 127
f 125 121 124 128
f 122 126 127 123
f 124 123 127 128
f 125 126 122 121
f 131 133 134 132
f 129 133 131
f 130 132 134
f 133 135 136 134
f 129 135 133
f 130 134 136
f 135 137 138 136
f 129 137 135
f 130 136 138
f 137 139 140 138
f 129 139 137
f 130 138 140
f 139 141 142 140
f 129 141 139
f 130 140 142
f 141 143 144 142
f 129 143 141
f 130 142 144
f 143 131 132 144
f 129 131 143
f 130 144 132
usemtl green
f 147 148 146
f 145 148 147
f 148 149 146
f 145 149 148
f 149 150 146
f 145 150 149
f 150 151 146
f 145 151 150
f 151 152 146
f 145 152 151
f 152 153 146
f 145 153 152
f 153 147 146
f 145 147 153
usemtl wood
f 156 158 159 157
f 154 158 156
f 155 157 159
f 158 160 161 159
f 154 160 158
f 155 159 161
f 160 162 163 161
f 154 162 160
f 155 161 163
f 162 164 165 163
f 154 164 162
f 155 163 165
f 164 166 167 165
f 154 166 164
f 155 165 167
f 166 168 169 167
f 154 168 166
f 155 167 169
f 168 156 157 169
f 154 156 168
f 155 169 157
usemtl green
f 172 173 171
f 170 173 172
f 173 174 171
f 170 174 173
f 174 175 171
f 170 175 174
f 175 176 171
f 170 176 175
f 176 177 171
f 170 177 176
f 177 178 171
f 170 178 177
f 178 172 171
f 170 172 178
usemtl wood
f 181 183 184 182
f 179 183 181
f 180 182 184
f 183 185 186 184
f 179 185 183
f 180 184 186
f 185 187 188 186
f 179 187 185
f 180 186 188
f 187 189 190 188
f 179 189 187
f 180 188 190
f 189 191 192 190
f 179 191 189
f 180 190 192
f 191 193 194 192
f 179 193 191
f 180 192 194
f 193 181 182 194
f 179 181 193
f 180 194 182
usemtl green
f 197 198 196
f 195 198 197
f 198 199 196
f 195 199 198
f 199 200 196
f 195 200 199
f 200 201 196
f 195 201 200
f 201 202 196
f 195 202 201
f 202 203 196
f 195 203 202
f 203 197 196
f 195 197 203
