# Generated low-poly placeholder
mtllib ../../materials/low_poly.mtl
o models/items/fireball_spellbook.obj
s off
v -0.50000 0.06000 -0.64000
v 0.50000 0.06000 -0.64000
v 0.50000 0.30000 -0.64000
v -0.50000 0.30000 -0.64000
v -0.50000 0.06000 0.64000
v 0.50000 0.06000 0.64000
v 0.50000 0.30000 0.64000
v -0.50000 0.30000 0.64000
v -0.56000 0.05000 -0.67000
v -0.40000 0.05000 -0.67000
v -0.40000 0.35000 -0.67000
v -0.56000 0.35000 -0.67000
v -0.56000 0.05000 0.67000
v -0.40000 0.05000 0.67000
v -0.40000 0.35000 0.67000
v -0.56000 0.35000 0.67000
v 0.12000 0.56000 0.00000
v 0.34000 0.34000 0.00000
v 0.12000 0.34000 0.22000
v 0.12000 0.56000 0.00000
v 0.12000 0.34000 0.22000
v -0.10000 0.34000 0.00000
v 0.12000 0.56000 0.00000
v -0.10000 0.34000 0.00000
v 0.12000 0.34000 -0.22000
v 0.12000 0.56000 0.00000
v 0.12000 0.34000 -0.22000
v 0.34000 0.34000 0.00000
v 0.12000 0.12000 0.00000
v 0.12000 0.34000 0.22000
v 0.34000 0.34000 0.00000
v 0.12000 0.12000 0.00000
v -0.10000 0.34000 0.00000
v 0.12000 0.34000 0.22000
v 0.12000 0.12000 0.00000
v 0.12000 0.34000 -0.22000
v -0.10000 0.34000 0.00000
v 0.12000 0.12000 0.00000
v 0.34000 0.34000 0.00000
v 0.12000 0.34000 -0.22000
usemtl red
f 1 2 3 4
f 6 5 8 7
f 5 1 4 8
f 2 6 7 3
f 4 3 7 8
f 5 6 2 1
usemtl gold
f 9 10 11 12
f 14 13 16 15
f 13 9 12 16
f 10 14 15 11
f 12 11 15 16
f 13 14 10 9
usemtl fire
f 17 18 19
f 20 21 22
f 23 24 25
f 26 27 28
f 29 30 31
f 32 33 34
f 35 36 37
f 38 39 40
