# Generated low-poly placeholder
mtllib ../../materials/low_poly.mtl
o models/items/gold_coin.obj
s off
v 0.00000 0.00000 0.00000
v 0.00000 0.16000 0.00000
v 0.48000 0.00000 0.00000
v 0.48000 0.16000 0.00000
v 0.41569 0.00000 0.24000
v 0.41569 0.16000 0.24000
v 0.24000 0.00000 0.41569
v 0.24000 0.16000 0.41569
v 0.00000 0.00000 0.48000
v 0.00000 0.16000 0.48000
v -0.24000 0.00000 0.41569
v -0.24000 0.16000 0.41569
v -0.41569 0.00000 0.24000
v -0.41569 0.16000 0.24000
v -0.48000 0.00000 0.00000
v -0.48000 0.16000 0.00000
v -0.41569 0.00000 -0.24000
v -0.41569 0.16000 -0.24000
v -0.24000 0.00000 -0.41569
v -0.24000 0.16000 -0.41569
v -0.00000 0.00000 -0.48000
v -0.00000 0.16000 -0.48000
v 0.24000 0.00000 -0.41569
v 0.24000 0.16000 -0.41569
v 0.41569 0.00000 -0.24000
v 0.41569 0.16000 -0.24000
v 0.00000 0.38000 0.00000
v 0.20000 0.18000 0.00000
v 0.00000 0.18000 0.20000
v 0.00000 0.38000 0.00000
v 0.00000 0.18000 0.20000
v -0.20000 0.18000 0.00000
v 0.00000 0.38000 0.00000
v -0.20000 0.18000 0.00000
v 0.00000 0.18000 -0.20000
v 0.00000 0.38000 0.00000
v 0.00000 0.18000 -0.20000
v 0.20000 0.18000 0.00000
v 0.00000 -0.02000 0.00000
v 0.00000 0.18000 0.20000
v 0.20000 0.18000 0.00000
v 0.00000 -0.02000 0.00000
v -0.20000 0.18000 0.00000
v 0.00000 0.18000 0.20000
v 0.00000 -0.02000 0.00000
v 0.00000 0.18000 -0.20000
v -0.20000 0.18000 0.00000
v 0.00000 -0.02000 0.00000
v 0.20000 0.18000 0.00000
v 0.00000 0.18000 -0.20000
usemtl gold
f 3 5 6 4
f 1 5 3
f 2 4 6
f 5 7 8 6
f 1 7 5
f 2 6 8
f 7 9 10 8
f 1 9 7
f 2 8 10
f 9 11 12 10
f 1 11 9
f 2 10 12
f 11 13 14 12
f 1 13 11
f 2 12 14
f 13 15 16 14
f 1 15 13
f 2 14 16
f 15 17 18 16
f 1 17 15
f 2 16 18
f 17 19 20 18
f 1 19 17
f 2 18 20
f 19 21 22 20
f 1 21 19
f 2 20 22
f 21 23 24 22
f 1 23 21
f 2 22 24
f 23 25 26 24
f 1 25 23
f 2 24 26
f 25 3 4 26
f 1 3 25
f 2 26 4
usemtl sand
f 27 28 29
f 30 31 32
f 33 34 35
f 36 37 38
f 39 40 41
f 42 43 44
f 45 46 47
f 48 49 50
