# Generated low-poly placeholder
mtllib ../../materials/low_poly.mtl
o models/items/inventory_upgrade.obj
s off
v -0.47500 0.10000 -0.25000
v 0.47500 0.10000 -0.25000
v 0.47500 1.20000 -0.25000
v -0.47500 1.20000 -0.25000
v -0.47500 0.10000 0.25000
v 0.47500 0.10000 0.25000
v 0.47500 1.20000 0.25000
v -0.47500 1.20000 0.25000
v 0.00000 1.13000 0.00000
v 0.00000 1.31000 0.00000
v 0.48000 1.13000 0.00000
v 0.48000 1.31000 0.00000
v 0.33941 1.13000 0.33941
v 0.33941 1.31000 0.33941
v 0.00000 1.13000 0.48000
v 0.00000 1.31000 0.48000
v -0.33941 1.13000 0.33941
v -0.33941 1.31000 0.33941
v -0.48000 1.13000 0.00000
v -0.48000 1.31000 0.00000
v -0.33941 1.13000 -0.33941
v -0.33941 1.31000 -0.33941
v -0.00000 1.13000 -0.48000
v -0.00000 1.31000 -0.48000
v 0.33941 1.13000 -0.33941
v 0.33941 1.31000 -0.33941
v -0.26000 0.43000 0.21000
v 0.26000 0.43000 0.21000
v 0.26000 0.85000 0.21000
v -0.26000 0.85000 0.21000
v -0.26000 0.43000 0.37000
v 0.26000 0.43000 0.37000
v 0.26000 0.85000 0.37000
v -0.26000 0.85000 0.37000
v -0.17000 0.59000 0.35000
v 0.17000 0.59000 0.35000
v 0.17000 0.69000 0.35000
v -0.17000 0.69000 0.35000
v -0.17000 0.59000 0.43000
v 0.17000 0.59000 0.43000
v 0.17000 0.69000 0.43000
v -0.17000 0.69000 0.43000
usemtl leather
f 1 2 3 4
f 6 5 8 7
f 5 1 4 8
f 2 6 7 3
f 4 3 7 8
f 5 6 2 1
usemtl leather_light
f 11 13 14 12
f 9 13 11
f 10 12 14
f 13 15 16 14
f 9 15 13
f 10 14 16
f 15 17 18 16
f 9 17 15
f 10 16 18
f 17 19 20 18
f 9 19 17
f 10 18 20
f 19 21 22 20
f 9 21 19
f 10 20 22
f 21 23 24 22
f 9 23 21
f 10 22 24
f 23 25 26 24
f 9 25 23
f 10 24 26
f 25 11 12 26
f 9 11 25
f 10 26 12
f 27 28 29 30
f 32 31 34 33
f 31 27 30 34
f 28 32 33 29
f 30 29 33 34
f 31 32 28 27
usemtl gold
f 35 36 37 38
f 40 39 42 41
f 39 35 38 42
f 36 40 41 37
f 38 37 41 42
f 39 40 36 35
