# Generated low-poly placeholder
mtllib ../../materials/low_poly.mtl
o models/items/poison_potion.obj
s off
v 0.00000 0.10000 0.00000
v 0.00000 0.74000 0.00000
v 0.34000 0.10000 0.00000
v 0.34000 0.74000 0.00000
v 0.24042 0.10000 0.24042
v 0.24042 0.74000 0.24042
v 0.00000 0.10000 0.34000
v 0.00000 0.74000 0.34000
v -0.24042 0.10000 0.24042
v -0.24042 0.74000 0.24042
v -0.34000 0.10000 0.00000
v -0.34000 0.74000 0.00000
v -0.24042 0.10000 -0.24042
v -0.24042 0.74000 -0.24042
v -0.00000 0.10000 -0.34000
v -0.00000 0.74000 -0.34000
v 0.24042 0.10000 -0.24042
v 0.24042 0.74000 -0.24042
v 0.00000 0.68000 0.00000
v 0.00000 0.96000 0.00000
v 0.17000 0.68000 0.00000
v 0.17000 0.96000 0.00000
v 0.12021 0.68000 0.12021
v 0.12021 0.96000 0.12021
v 0.00000 0.68000 0.17000
v 0.00000 0.96000 0.17000
v -0.12021 0.68000 0.12021
v -0.12021 0.96000 0.12021
v -0.17000 0.68000 0.00000
v -0.17000 0.96000 0.00000
v -0.12021 0.68000 -0.12021
v -0.12021 0.96000 -0.12021
v -0.00000 0.68000 -0.17000
v -0.00000 0.96000 -0.17000
v 0.12021 0.68000 -0.12021
v 0.12021 0.96000 -0.12021
v 0.00000 0.94000 0.00000
v 0.00000 1.10000 0.00000
v 0.20000 0.94000 0.00000
v 0.20000 1.10000 0.00000
v 0.14142 0.94000 0.14142
v 0.14142 1.10000 0.14142
v 0.00000 0.94000 0.20000
v 0.00000 1.10000 0.20000
v -0.14142 0.94000 0.14142
v -0.14142 1.10000 0.14142
v -0.20000 0.94000 0.00000
v -0.20000 1.10000 0.00000
v -0.14142 0.94000 -0.14142
v -0.14142 1.10000 -0.14142
v -0.00000 0.94000 -0.20000
v -0.00000 1.10000 -0.20000
v 0.14142 0.94000 -0.14142
v 0.14142 1.10000 -0.14142
usemtl poison
f 3 5 6 4
f 1 5 3
f 2 4 6
f 5 7 8 6
f 1 7 5
f 2 6 8
f 7 9 10 8
f 1 9 7
f 2 8 10
f 9 11 12 10
f 1 11 9
f 2 10 12
f 11 13 14 12
f 1 13 11
f 2 12 14
f 13 15 16 14
f 1 15 13
f 2 14 16
f 15 17 18 16
f 1 17 15
f 2 16 18
f 17 3 4 18
f 1 3 17
f 2 18 4
usemtl glass
f 21 23 24 22
f 19 23 21
f 20 22 24
f 23 25 26 24
f 19 25 23
f 20 24 26
f 25 27 28 26
f 19 27 25
f 20 26 28
f 27 29 30 28
f 19 29 27
f 20 28 30
f 29 31 32 30
f 19 31 29
f 20 30 32
f 31 33 34 32
f 19 33 31
f 20 32 34
f 33 35 36 34
f 19 35 33
f 20 34 36
f 35 21 22 36
f 19 21 35
f 20 36 22
usemtl wood
f 39 41 42 40
f 37 41 39
f 38 40 42
f 41 43 44 42
f 37 43 41
f 38 42 44
f 43 45 46 44
f 37 45 43
f 38 44 46
f 45 47 48 46
f 37 47 45
f 38 46 48
f 47 49 50 48
f 37 49 47
f 38 48 50
f 49 51 52 50
f 37 51 49
f 38 50 52
f 51 53 54 52
f 37 53 51
f 38 52 54
f 53 39 40 54
f 37 39 53
f 38 54 40
