# Generated low-poly placeholder
mtllib ../../materials/low_poly.mtl
o models/items/raven_feather.obj
s off
v 0.00000 0.00000 0.00000
v 0.00000 1.44000 0.00000
v 0.03500 0.00000 0.00000
v 0.03500 1.44000 0.00000
v 0.01750 0.00000 0.03031
v 0.01750 1.44000 0.03031
v -0.01750 0.00000 0.03031
v -0.01750 1.44000 0.03031
v -0.03500 0.00000 0.00000
v -0.03500 1.44000 0.00000
v -0.01750 0.00000 -0.03031
v -0.01750 1.44000 -0.03031
v 0.01750 0.00000 -0.03031
v 0.01750 1.44000 -0.03031
v 0.00000 0.38000 0.00000
v -0.46000 0.50000 0.00000
v 0.00000 0.68000 0.00000
v 0.00000 0.38000 0.01000
v 0.46000 0.50000 0.01000
v 0.00000 0.68000 0.01000
v 0.00000 0.60000 0.00000
v -0.40500 0.72000 0.00000
v 0.00000 0.90000 0.00000
v 0.00000 0.60000 0.01000
v 0.40500 0.72000 0.01000
v 0.00000 0.90000 0.01000
v 0.00000 0.82000 0.00000
v -0.35000 0.94000 0.00000
v 0.00000 1.12000 0.00000
v 0.00000 0.82000 0.01000
v 0.35000 0.94000 0.01000
v 0.00000 1.12000 0.01000
v 0.00000 1.04000 0.00000
v -0.29500 1.16000 0.00000
v 0.00000 1.34000 0.00000
v 0.00000 1.04000 0.01000
v 0.29500 1.16000 0.01000
v 0.00000 1.34000 0.01000
v 0.00000 1.26000 0.00000
v -0.24000 1.38000 0.00000
v 0.00000 1.56000 0.00000
v 0.00000 1.26000 0.01000
v 0.24000 1.38000 0.01000
v 0.00000 1.56000 0.01000
usemtl silver
f 3 5 6 4
f 1 5 3
f 2 4 6
f 5 7 8 6
f 1 7 5
f 2 6 8
f 7 9 10 8
f 1 9 7
f 2 8 10
f 9 11 12 10
f 1 11 9
f 2 10 12
f 11 13 14 12
f 1 13 11
f 2 12 14
f 13 3 4 14
f 1 3 13
f 2 14 4
usemtl raven
f 15 16 17
f 18 19 20
f 21 22 23
f 24 25 26
f 27 28 29
f 30 31 32
f 33 34 35
f 36 37 38
f 39 40 41
f 42 43 44
