# Generated low-poly placeholder
mtllib ../../materials/low_poly.mtl
o models/items/wolf_fur.obj
s off
v -0.70000 0.00000 -0.50000
v 0.70000 0.00000 -0.50000
v 0.70000 0.14000 -0.50000
v -0.70000 0.14000 -0.50000
v -0.70000 0.00000 0.50000
v 0.70000 0.00000 0.50000
v 0.70000 0.14000 0.50000
v -0.70000 0.14000 0.50000
v -0.62000 -0.13000 -0.55000
v -0.62000 0.29000 -0.55000
v -0.44000 -0.13000 -0.55000
v -0.62000 -0.13000 -0.37000
v -0.80000 -0.13000 -0.55000
v -0.62000 -0.13000 -0.73000
v 0.00000 -0.13000 -0.62000
v 0.00000 0.29000 -0.62000
v 0.18000 -0.13000 -0.62000
v 0.00000 -0.13000 -0.44000
v -0.18000 -0.13000 -0.62000
v -0.00000 -0.13000 -0.80000
v 0.62000 -0.13000 -0.55000
v 0.62000 0.29000 -0.55000
v 0.80000 -0.13000 -0.55000
v 0.62000 -0.13000 -0.37000
v 0.44000 -0.13000 -0.55000
v 0.62000 -0.13000 -0.73000
v -0.62000 -0.13000 0.55000
v -0.62000 0.29000 0.55000
v -0.44000 -0.13000 0.55000
v -0.62000 -0.13000 0.73000
v -0.80000 -0.13000 0.55000
v -0.62000 -0.13000 0.37000
v 0.62000 -0.13000 0.55000
v 0.62000 0.29000 0.55000
v 0.80000 -0.13000 0.55000
v 0.62000 -0.13000 0.73000
v 0.44000 -0.13000 0.55000
v 0.62000 -0.13000 0.37000
usemtl fur
f 1 2 3 4
f 6 5 8 7
f 5 1 4 8
f 2 6 7 3
f 4 3 7 8
f 5 6 2 1
f 11 12 10
f 9 12 11
f 12 13 10
f 9 13 12
f 13 14 10
f 9 14 13
f 14 11 10
f 9 11 14
f 17 18 16
f 15 18 17
f 18 19 16
f 15 19 18
f 19 20 16
f 15 20 19
f 20 17 16
f 15 17 20
f 23 24 22
f 21 24 23
f 24 25 22
f 21 25 24
f 25 26 22
f 21 26 25
f 26 23 22
f 21 23 26
f 29 30 28
f 27 30 29
f 30 31 28
f 27 31 30
f 31 32 28
f 27 32 31
f 32 29 28
f 27 29 32
f 35 36 34
f 33 36 35
f 36 37 34
f 33 37 36
f 37 38 34
f 33 38 37
f 38 35 34
f 33 35 38
