# Generated low-poly placeholder
mtllib ../../materials/low_poly.mtl
o models/equipment/adventurer_boots.obj
s off
v -0.51000 0.02000 -0.24000
v -0.09000 0.02000 -0.24000
v -0.09000 0.86000 -0.24000
v -0.51000 0.86000 -0.24000
v -0.51000 0.02000 0.24000
v -0.09000 0.02000 0.24000
v -0.09000 0.86000 0.24000
v -0.51000 0.86000 0.24000
v -0.53000 0.01000 -0.20000
v -0.07000 0.01000 -0.20000
v -0.07000 0.27000 -0.20000
v -0.53000 0.27000 -0.20000
v -0.53000 0.01000 0.64000
v -0.07000 0.01000 0.64000
v -0.07000 0.27000 0.64000
v -0.53000 0.27000 0.64000
v 0.09000 0.02000 -0.24000
v 0.51000 0.02000 -0.24000
v 0.51000 0.86000 -0.24000
v 0.09000 0.86000 -0.24000
v 0.09000 0.02000 0.24000
v 0.51000 0.02000 0.24000
v 0.51000 0.86000 0.24000
v 0.09000 0.86000 0.24000
v 0.07000 0.01000 -0.20000
v 0.53000 0.01000 -0.20000
v 0.53000 0.27000 -0.20000
v 0.07000 0.27000 -0.20000
v 0.07000 0.01000 0.64000
v 0.53000 0.01000 0.64000
v 0.53000 0.27000 0.64000
v 0.07000 0.27000 0.64000
usemtl leather
f 1 2 3 4
f 6 5 8 7
f 5 1 4 8
f 2 6 7 3
f 4 3 7 8
f 5 6 2 1
usemtl leather_light
f 9 10 11 12
f 14 13 16 15
f 13 9 12 16
f 10 14 15 11
f 12 11 15 16
f 13 14 10 9
usemtl leather
f 17 18 19 20
f 22 21 24 23
f 21 17 20 24
f 18 22 23 19
f 20 19 23 24
f 21 22 18 17
usemtl leather_light
f 25 26 27 28
f 30 29 32 31
f 29 25 28 32
f 26 30 31 27
f 28 27 31 32
f 29 30 26 25
