# Generated low-poly placeholder
mtllib ../../materials/low_poly.mtl
o models/equipment/adventurer_hat.obj
s off
v 0.00000 0.01000 0.00000
v 0.00000 0.15000 0.00000
v 0.76000 0.01000 0.00000
v 0.76000 0.15000 0.00000
v 0.65818 0.01000 0.38000
v 0.65818 0.15000 0.38000
v 0.38000 0.01000 0.65818
v 0.38000 0.15000 0.65818
v 0.00000 0.01000 0.76000
v 0.00000 0.15000 0.76000
v -0.38000 0.01000 0.65818
v -0.38000 0.15000 0.65818
v -0.65818 0.01000 0.38000
v -0.65818 0.15000 0.38000
v -0.76000 0.01000 0.00000
v -0.76000 0.15000 0.00000
v -0.65818 0.01000 -0.38000
v -0.65818 0.15000 -0.38000
v -0.38000 0.01000 -0.65818
v -0.38000 0.15000 -0.65818
v -0.00000 0.01000 -0.76000
v -0.00000 0.15000 -0.76000
v 0.38000 0.01000 -0.65818
v 0.38000 0.15000 -0.65818
v 0.65818 0.01000 -0.38000
v 0.65818 0.15000 -0.38000
v 0.00000 0.08500 0.00000
v 0.00000 1.23500 0.00000
v 0.50000 0.08500 0.00000
v 0.35355 0.08500 0.35355
v 0.00000 0.08500 0.50000
v -0.35355 0.08500 0.35355
v -0.50000 0.08500 0.00000
v -0.35355 0.08500 -0.35355
v -0.00000 0.08500 -0.50000
v 0.35355 0.08500 -0.35355
v -0.47500 0.32000 0.42000
v 0.47500 0.32000 0.42000
v 0.47500 0.44000 0.42000
v -0.47500 0.44000 0.42000
v -0.47500 0.32000 0.50000
v 0.47500 0.32000 0.50000
v 0.47500 0.44000 0.50000
v -0.47500 0.44000 0.50000
usemtl leather
f 3 5 6 4
f 1 5 3
f 2 4 6
f 5 7 8 6
f 1 7 5
f 2 6 8
f 7 9 10 8
f 1 9 7
f 2 8 10
f 9 11 12 10
f 1 11 9
f 2 10 12
f 11 13 14 12
f 1 13 11
f 2 12 14
f 13 15 16 14
f 1 15 13
f 2 14 16
f 15 17 18 16
f 1 17 15
f 2 16 18
f 17 19 20 18
f 1 19 17
f 2 18 20
f 19 21 22 20
f 1 21 19
f 2 20 22
f 21 23 24 22
f 1 23 21
f 2 22 24
f 23 25 26 24
f 1 25 23
f 2 24 26
f 25 3 4 26
f 1 3 25
f 2 26 4
usemtl leather_light
f 29 30 28
f 27 30 29
f 30 31 28
f 27 31 30
f 31 32 28
f 27 32 31
f 32 33 28
f 27 33 32
f 33 34 28
f 27 34 33
f 34 35 28
f 27 35 34
f 35 36 28
f 27 36 35
f 36 29 28
f 27 29 36
usemtl red
f 37 38 39 40
f 42 41 44 43
f 41 37 40 44
f 38 42 43 39
f 40 39 43 44
f 41 42 38 37
