<svg xmlns="http://www.w3.org/2000/svg" width="1280" height="720" viewBox="0 0 1280 720">
  <defs><style>.title{font:700 42px sans-serif;fill:#f8fafc;letter-spacing:3px}.button{font:700 22px sans-serif;fill:#f8fafc}.small{font:600 18px sans-serif;fill:#cbd5e1}.label{font:700 16px sans-serif;fill:#94a3b8}</style></defs>
  <rect width="1280" height="720" fill="#0b1220"/>
  <path d="M0 510L220 350L390 470L610 260L830 450L1050 300L1280 470V720H0Z" fill="#13253a"/>
  <path d="M0 610L280 470L520 610L780 420L1030 560L1280 430V720H0Z" fill="#173148"/>
  <rect x="34" y="28" width="1212" height="664" rx="22" fill="#101b2c" fill-opacity=".9" stroke="#3b82f6" stroke-width="4"/>
  <text x="640" y="102" text-anchor="middle" class="title">PROJET RED</text>
  <path d="M440 124H840" stroke="#3b82f6" stroke-width="5"/>
  <g transform="translate(440 230)">
    <rect width="400" height="72" rx="14" fill="#263a56" stroke="#5d7ba4" stroke-width="3"/><text x="200" y="46" text-anchor="middle" class="button">NOUVELLE PARTIE</text>
    <rect y="94" width="400" height="72" rx="14" fill="#263a56" stroke="#5d7ba4" stroke-width="3"/><text x="200" y="140" text-anchor="middle" class="button">CONTINUER</text>
    <rect y="188" width="400" height="72" rx="14" fill="#3d2027" stroke="#8e4250" stroke-width="3"/><text x="200" y="234" text-anchor="middle" class="button">QUITTER</text>
  </g>
</svg>
